<svg id="140" viewBox="0 0 380 470" xmlns="http://www.w3.org/2000/svg" xmlns:xlink="http://www.w3.org/1999/xlink"><g transform="matrix(1,0,0,1,0,0)"><g id="140" opacity="1" style="mix-blend-mode:normal"><g><defs><clipPath id="140_clipPath" x="-50%" y="-50%" width="200%" height="200%"><path d="M0,0h380v0v470v0h-380v0v-470z" fill="white" clip-rule="nonzero"></path></clipPath></defs><g clip-path="url(#140_clipPath)"><path id="140_fill_path" d="M0,0h380v0v470v0h-380v0v-470z" fill-rule="nonzero" fill="rgb(255, 255, 255)" fill-opacity="1" style="mix-blend-mode:NORMAL"></path><g transform="matrix(1,0,0,1,-69,-440)"><g id="148" opacity="1" style="mix-blend-mode:normal"><g><g><g style="mix-blend-mode:normal"><defs><linearGradient id="lojt8i9r7pjcphap9my" x1="258.5" y1="0" x2="258.5" y2="526" gradientUnits="userSpaceOnUse"><stop offset="0%" stop-opacity="1" stop-color="rgb(26, 158, 117)"></stop><stop offset="100%" stop-opacity="1" stop-color="rgb(38, 196, 147)"></stop></linearGradient></defs><path id="148_fill_path" d="M517,263c0,145.25089 -115.73439,263 -258.5,263c-142.76561,0 -258.5,-117.74911 -258.5,-263c0,-145.25089 115.73439,-263 258.5,-263c142.76561,0 258.5,117.74911 258.5,263z" fill-rule="nonzero" fill="url(#lojt8i9r7pjcphap9my)"></path></g></g></g></g></g><g transform="matrix(1,0,0,1,123,77)"><g id="149" opacity="1" style="mix-blend-mode:normal"><g><g><path id="149_fill_path" d="M132,66c0,36.4518 -29.5482,66 -66,66c-36.4518,0 -66,-29.5482 -66,-66c0,-36.4518 29.5482,-66 66,-66c36.4518,0 66,29.5482 66,66z" fill-rule="nonzero" fill="rgb(106, 222, 185)" fill-opacity="1" style="mix-blend-mode:NORMAL"></path></g></g></g></g><g transform="matrix(1,0,0,1,136,90)"><g id="150" opacity="1" style="mix-blend-mode:normal"><g><g><path id="150_fill_path" d="M106,53c0,29.2719 -23.7281,53 -53,53c-29.2719,0 -53,-23.7281 -53,-53c0,-29.2719 23.7281,-53 53,-53c29.2719,0 53,23.7281 53,53z" fill-rule="nonzero" fill="rgb(255, 255, 255)" fill-opacity="1" style="mix-blend-mode:NORMAL"></path><defs><clipPath id="150_stroke_clip_path" clipPathUnits="userSpaceOnUse"><path d="M106,53c0,29.2719 -23.7281,53 -53,53c-29.2719,0 -53,-23.7281 -53,-53c0,-29.2719 23.7281,-53 53,-53c29.2719,0 53,23.7281 53,53z"></path></clipPath></defs><g style="mix-blend-mode:NORMAL"><g clip-path="url(#150_stroke_clip_path)"><path id="150_stroke_path" d="M106,53c0,29.2719 -23.7281,53 -53,53c-29.2719,0 -53,-23.7281 -53,-53c0,-29.2719 23.7281,-53 53,-53c29.2719,0 53,23.7281 53,53z" fill="none" stroke="rgb(0, 0, 0)" stroke-width="2" stroke-linecap="butt" stroke-linejoin="miter" stroke-dasharray="0 0" stroke-opacity="1"></path></g></g></g></g></g></g><g transform="matrix(1,0,0,1,147,101)"><g id="151" opacity="1" style="mix-blend-mode:normal"><g><g><path id="151_fill_path" d="M83,41.5c0,22.9205 -18.5795,41.5 -41.5,41.5c-22.9204,0 -41.5,-18.5795 -41.5,-41.5c0,-22.9204 18.5796,-41.5 41.5,-41.5c22.9205,0 41.5,18.5796 41.5,41.5z" fill-rule="nonzero" fill="rgb(255, 255, 255)" fill-opacity="1" style="mix-blend-mode:NORMAL"></path><defs><clipPath id="151_stroke_clip_path" clipPathUnits="userSpaceOnUse"><path d="M-15,-15 H98 V98 H-15 Z M83,41.5c0,22.9205 -18.5795,41.5 -41.5,41.5c-22.9204,0 -41.5,-18.5795 -41.5,-41.5c0,-22.9204 18.5796,-41.5 41.5,-41.5c22.9205,0 41.5,18.5796 41.5,41.5z" clip-rule="evenodd"></path></clipPath></defs><g style="mix-blend-mode:NORMAL"><g clip-path="url(#151_stroke_clip_path)"><path id="151_stroke_path" d="M83,41.5c0,22.9205 -18.5795,41.5 -41.5,41.5c-22.9204,0 -41.5,-18.5795 -41.5,-41.5c0,-22.9204 18.5796,-41.5 41.5,-41.5c22.9205,0 41.5,18.5796 41.5,41.5z" fill="none" stroke="rgb(218, 255, 243)" stroke-width="30" stroke-linecap="butt" stroke-linejoin="miter" stroke-dasharray="0 0" stroke-opacity="1"></path></g></g></g></g></g></g><g transform="matrix(1,0,0,1,164,118)"><g id="152" opacity="1" style="mix-blend-mode:normal"><g><g><defs><mask id="153_mask" style="mask-type:alpha" x="-50%" y="-50%" width="200%" height="200%"><g transform="matrix(1,0,0,1,0,0)"><g id="153" opacity="1" style="mix-blend-mode:normal"><g><g><path id="153_fill_path" d="M0,0h50v0v50v0h-50v0v-50z" fill-rule="nonzero" fill="rgb(26, 158, 117)" fill-opacity="1" style="mix-blend-mode:NORMAL"></path></g></g></g></g></mask></defs><g mask="url(#153_mask)"><g transform="matrix(1,0,0,1,8.0197,12.4482)"><g id="154" opacity="0" style="mix-blend-mode:normal"><g><g><path id="154_fill_path" d="M11.875,25.05209l-11.875,-11.875l2.96875,-2.96875l8.90625,8.90625l19.11458,-19.11459l2.96875,2.96875z" fill-rule="nonzero" fill="rgb(26, 158, 117)" fill-opacity="1" style="mix-blend-mode:NORMAL"></path></g></g></g></g></g></g></g></g></g></g></g></g></g><animateTransform href="#148" attributeName="transform" type="translate" values="0 0;-2 325;-2 325" dur="3s" repeatCount="indefinite" calcMode="spline" keyTimes="0;0.67;1" keySplines="0.5 0.35 0.15 1;0.5 0.35 0.15 1" additive="sum" fill="freeze"></animateTransform><animateTransform href="#149" attributeName="transform" type="translate" values="66 66;66 66;66 66;66 66" dur="3s" repeatCount="indefinite" calcMode="spline" keyTimes="0;0.21;0.48;1" keySplines="0.5 0.35 0.15 1;0.5 0.35 0.15 1;0.5 0.35 0.15 1" additive="sum" fill="freeze"></animateTransform><animateTransform href="#149" attributeName="transform" type="scale" values="0 0;0 0;1 1;1 1" dur="3s" repeatCount="indefinite" calcMode="spline" keyTimes="0;0.21;0.48;1" keySplines="0.5 0.35 0.15 1;0.5 0.35 0.15 1;0.5 0.35 0.15 1" additive="sum" fill="freeze"></animateTransform><animateTransform href="#149" attributeName="transform" type="translate" values="-66 -66;-66 -66;-66 -66;-66 -66" dur="3s" repeatCount="indefinite" calcMode="spline" keyTimes="0;0.21;0.48;1" keySplines="0.5 0.35 0.15 1;0.5 0.35 0.15 1;0.5 0.35 0.15 1" additive="sum" fill="freeze"></animateTransform><animateTransform href="#150" attributeName="transform" type="translate" values="53 53;53 53;53 53;53 53" dur="3s" repeatCount="indefinite" calcMode="spline" keyTimes="0;0.23;0.5;1" keySplines="0.5 0.35 0.15 1;0.5 0.35 0.15 1;0.5 0.35 0.15 1" additive="sum" fill="freeze"></animateTransform><animateTransform href="#150" attributeName="transform" type="scale" values="0 0;0 0;1 1;1 1" dur="3s" repeatCount="indefinite" calcMode="spline" keyTimes="0;0.23;0.5;1" keySplines="0.5 0.35 0.15 1;0.5 0.35 0.15 1;0.5 0.35 0.15 1" additive="sum" fill="freeze"></animateTransform><animateTransform href="#150" attributeName="transform" type="translate" values="-53 -53;-53 -53;-53 -53;-53 -53" dur="3s" repeatCount="indefinite" calcMode="spline" keyTimes="0;0.23;0.5;1" keySplines="0.5 0.35 0.15 1;0.5 0.35 0.15 1;0.5 0.35 0.15 1" additive="sum" fill="freeze"></animateTransform><animateTransform href="#151" attributeName="transform" type="translate" values="41.5 41.5;41.5 41.5;41.5 41.5;41.5 41.5" dur="3s" repeatCount="indefinite" calcMode="spline" keyTimes="0;0.25;0.52;1" keySplines="0.5 0.35 0.15 1;0.5 0.35 0.15 1;0.5 0.35 0.15 1" additive="sum" fill="freeze"></animateTransform><animateTransform href="#151" attributeName="transform" type="scale" values="0 0;0 0;1 1;1 1" dur="3s" repeatCount="indefinite" calcMode="spline" keyTimes="0;0.25;0.52;1" keySplines="0.5 0.35 0.15 1;0.5 0.35 0.15 1;0.5 0.35 0.15 1" additive="sum" fill="freeze"></animateTransform><animateTransform href="#151" attributeName="transform" type="translate" values="-41.5 -41.5;-41.5 -41.5;-41.5 -41.5;-41.5 -41.5" dur="3s" repeatCount="indefinite" calcMode="spline" keyTimes="0;0.25;0.52;1" keySplines="0.5 0.35 0.15 1;0.5 0.35 0.15 1;0.5 0.35 0.15 1" additive="sum" fill="freeze"></animateTransform><animate href="#154" attributeName="opacity" values="0;0;1;1" dur="3s" repeatCount="indefinite" calcMode="spline" keyTimes="0;0.49;0.75;1" keySplines="0.5 0.35 0.15 1;0.5 0.35 0.15 1;0.5 0.35 0.15 1" additive="replace" fill="freeze"></animate></svg>