<svg width="42" height="14" viewBox="0 0 42 14" fill="none" xmlns="http://www.w3.org/2000/svg">
<g id="paytm-icon 1" clip-path="url(#clip0_685_448)">
<g id="Group">
<path id="Vector" d="M41.8599 3.88281C41.4771 2.79248 40.438 2.00977 39.2212 2.00977H39.1938C38.4009 2.00977 37.6865 2.34131 37.1772 2.87109C36.668 2.34131 35.9536 2.00977 35.1606 2.00977H35.1367C34.4395 2.00977 33.8003 2.26611 33.3115 2.68652V2.47461C33.2944 2.25928 33.1201 2.0918 32.9014 2.0918H31.0283C30.7993 2.0918 30.6147 2.27637 30.6147 2.50537V12.6704C30.6147 12.8994 30.7993 13.084 31.0283 13.084H32.9014C33.1099 13.084 33.2842 12.9268 33.3081 12.7285V5.43115C33.3081 5.40381 33.3081 5.3833 33.3115 5.35938C33.3423 5.03467 33.5815 4.76465 33.9575 4.73389H34.3027C34.46 4.74756 34.5933 4.80225 34.6958 4.8877C34.8599 5.01758 34.9487 5.21582 34.9487 5.43457L34.9556 12.6943C34.9556 12.9233 35.1401 13.1113 35.3691 13.1113H37.2422C37.4644 13.1113 37.6421 12.937 37.6523 12.7183V5.42773C37.6523 5.18848 37.7617 4.96973 37.9565 4.84326C38.0522 4.78174 38.1685 4.74072 38.3018 4.72705H38.647C39.0537 4.76123 39.2964 5.06885 39.2964 5.42773L39.3032 12.6807C39.3032 12.9097 39.4878 13.0942 39.7168 13.0942H41.5898C41.8086 13.0942 41.9897 12.9233 42.0034 12.708V4.75439C41.9932 4.30664 41.9351 4.09814 41.8599 3.88281ZM29.186 2.11914H28.1162V0.382812C28.1162 0.379395 28.1162 0.379395 28.1162 0.375977C28.1162 0.170898 27.9487 0 27.7368 0C27.7129 0 27.689 0.00341797 27.665 0.00683594C26.479 0.331543 26.7148 1.97559 24.5479 2.11572H24.3394C24.3086 2.11572 24.2778 2.11914 24.2471 2.12598C24.0659 2.17041 23.9258 2.33447 23.9258 2.53271V4.40576C23.9258 4.63477 24.1104 4.81934 24.3394 4.81934H25.4673L25.4639 12.7559C25.4639 12.9814 25.6484 13.166 25.874 13.166H27.7266C27.9521 13.166 28.1367 12.9814 28.1367 12.7559V4.81934H29.186C29.4116 4.81934 29.5996 4.63135 29.5996 4.40576V2.53271C29.5996 2.30371 29.415 2.11914 29.186 2.11914Z" fill="#00BAF2"/>
<path id="Vector_2" d="M22.4526 2.11865H20.5796C20.354 2.11865 20.166 2.30322 20.166 2.53223V6.40478C20.1626 6.64404 19.9678 6.83545 19.7285 6.83545H18.9458C18.7031 6.83545 18.5049 6.64062 18.5049 6.39795L18.498 2.53223C18.498 2.30322 18.3135 2.11865 18.0845 2.11865H16.2114C15.9824 2.11865 15.7979 2.30322 15.7979 2.53223V6.77393C15.7979 8.38379 16.9463 9.53564 18.5596 9.53564C18.5596 9.53564 19.7695 9.53564 19.8071 9.54248C20.0259 9.56641 20.1934 9.75098 20.1934 9.97656C20.1934 10.1987 20.0293 10.3833 19.8105 10.4106C19.8003 10.4106 19.79 10.4141 19.7798 10.4175L17.042 10.4277C16.813 10.4277 16.6284 10.6123 16.6284 10.8413V12.7109C16.6284 12.9399 16.813 13.1245 17.042 13.1245H20.1011C21.7144 13.1245 22.8628 11.9761 22.8628 10.3662V2.53223C22.8662 2.30322 22.6816 2.11865 22.4526 2.11865ZM11.8022 2.12891H9.20459C8.97559 2.12891 8.7876 2.30322 8.7876 2.51514V3.24316C8.7876 3.24658 8.7876 3.25342 8.7876 3.25684C8.7876 3.26367 8.7876 3.26709 8.7876 3.27393V4.27197C8.7876 4.49756 8.98584 4.68555 9.22852 4.68555H11.7031C11.898 4.71631 12.0518 4.85986 12.0757 5.08203V5.32471C12.0552 5.53662 11.9014 5.69043 11.7134 5.70752H10.4897C8.85938 5.70752 7.70068 6.79102 7.70068 8.30859V10.4858C7.70068 11.9966 8.69873 13.0698 10.3154 13.0698H13.7095C14.3179 13.0698 14.8135 12.6084 14.8135 12.041V4.93848C14.8135 3.21582 13.9248 2.12891 11.8022 2.12891ZM12.0996 9.94238V10.2363C12.0996 10.2603 12.0962 10.2842 12.0928 10.3047C12.0894 10.3252 12.0825 10.3457 12.0757 10.3662C12.0176 10.5303 11.8535 10.6499 11.6587 10.6499H10.8794C10.6367 10.6499 10.4385 10.4653 10.4385 10.2363V9.88428C10.4385 9.88086 10.4385 9.87402 10.4385 9.8706V8.93066V8.63672V8.6333C10.4385 8.40771 10.6367 8.22314 10.8794 8.22314H11.6587C11.9014 8.22314 12.0996 8.40771 12.0996 8.63672V9.94238ZM4.49805 2.11523H0.406738C0.181152 2.11523 0 2.2998 0 2.52197V4.35742C0 4.36084 0 4.36426 0 4.36768C0 4.37793 0 4.38477 0 4.3916V12.6938C0 12.9194 0.16748 13.104 0.379395 13.1074H2.28662C2.51562 13.1074 2.7002 12.9229 2.7002 12.6938L2.70703 9.8501H4.49805C5.99512 9.8501 7.04102 8.81104 7.04102 7.30371V4.66504C7.04102 3.16113 5.99512 2.11523 4.49805 2.11523ZM4.33398 5.54687V6.70215C4.33398 6.94482 4.13916 7.14307 3.89648 7.14307H2.71045V4.8291H3.89648C4.13916 4.8291 4.33398 5.02393 4.33398 5.2666V5.54687Z" fill="#20336B"/>
</g>
</g>
<defs>
<clipPath id="clip0_685_448">
<rect width="42" height="13.166" fill="white"/>
</clipPath>
</defs>
</svg>
